/* XPM */
static const char *chest_64[] = {
/* columns rows colors chars-per-pixel */
"64 64 9 1 ",
"  c #1C1117",
". c #421B2E",
"X c #56252F",
"o c #7A3333",
"O c #874040",
"+ c #487085",
"@ c #5A8CA6",
"# c #8EBBD1",
"$ c #422835",
/* pixels */
"$$$$$$$$$$$$$$$$$$$$$$$$$$$$$$$$$$$$$$$$$$$$$$$$$$$$$$$$$$$$$$$$",
"$$$$$$$$$$$$$$$$$$$$$$$$$$$$$$$$$$$$$$$$$$$$$$$$$$$$$$$$$$$$$$$$",
"$$$$$$$$$$$$$$$$$$$$$$$$$$$$$$$$$$$$$$$$$$$$$$$$$$$$$$$$$$$$$$$$",
"$$$$$$$$$$$$$$$$$$$$$$$$$$$$$$$$$$$$$$$$$$$$$$$$$$$$$$$$$$$$$$$$",
"$$$$$$$$$$$$$$$$$$$$$$$$$$$$$$$$$$$$$$$$$$$$$$$$$$$$$$$$$$$$$$$$",
"$$$$$$$$        $$$$$$$$$$$$$$$$$$$$$$$$$$$$$$$$        $$$$$$$$",
"$$$$$$$$        $$$$$$$$$$$$$$$$$$$$$$$$$$$$$$$$        $$$$$$$$",
"$$$$$$$$        $$$$$$$$$$$$$$$$$$$$$$$$$$$$$$$$        $$$$$$$$",
"$       ++++....                                ....++++       $",
"$       ++++....                                ....++++       $",
"$       ++++....                                ....++++       $",
"$   OOOO####XXXXOOOOOOOOOOOOOOOOOOOOOOOOOOOOOOOOXXXX####OOOO   $",
"$   OOOO####XXXXOOOOOOOOOOOOOOOOOOOOOOOOOOOOOOOOXXXX####OOOO   $",
"$   OOOO####XXXXOOOOOOOOOOOOOOOOOOOOOOOOOOOOOOOOXXXX####OOOO   $",
"$   OOOO####XXXXOOOOOOOOOOOOOOOOOOOOOOOOOOOOOOOOXXXX####OOOO   $",
"$   OOOO++++....OOOOOOOOOOOOOOOOOOOOOOOOOOOOOOOO....++++OOOO   $",
"$   OOOO++++....OOOOOOOOOOOOOOOOOOOOOOOOOOOOOOOO....++++OOOO   $",
"$   OOOO++++....OOOOOOOOOOOOOOOOOOOOOOOOOOOOOOOO....++++OOOO   $",
"$   OOOO++++....OOOOOOOOOOOOOOOOOOOOOOOOOOOOOOOO....++++OOOO   $",
"$   OOOO####XXXXooooooooooooooooooooooooooooooooXXXX####OOOO   $",
"$   OOOO####XXXXooooooooooooooooooooooooooooooooXXXX####OOOO   $",
"$   OOOO####XXXXooooooooooooooooooooooooooooooooXXXX####OOOO   $",
"$   OOOO####XXXXooooooooooooooooooooooooooooooooXXXX####OOOO   $",
"$   oooo@@@@....oooooooooooooooooooooooooooooooo....@@@@oooo   $",
"$   oooo@@@@....oooooooooooooooooooooooooooooooo....@@@@oooo   $",
"$   oooo@@@@....oooooooooooooooooooooooooooooooo....@@@@oooo   $",
"$   oooo@@@@....oooooooooooooooooooooooooooooooo....@@@@oooo   $",
"$   oooo++++XXXXooooooooXXXX........XXXXooooooooXXXX++++oooo   $",
"$   oooo++++XXXXooooooooXXXX........XXXXooooooooXXXX++++oooo   $",
"$   oooo++++XXXXooooooooXXXX........XXXXooooooooXXXX++++oooo   $",
"$   oooo++++XXXXooooooooXXXX........XXXXooooooooXXXX++++oooo   $",
"$   @@@@@@@@....@@@@@@@@....@@@@@@@@....@@@@@@@@....@@@@@@@@   $",
"$   @@@@@@@@....@@@@@@@@....@@@@@@@@....@@@@@@@@....@@@@@@@@   $",
"$   @@@@@@@@....@@@@@@@@....@@@@@@@@....@@@@@@@@....@@@@@@@@   $",
"$   @@@@@@@@....@@@@@@@@....@@@@@@@@....@@@@@@@@....@@@@@@@@   $",
"$       ++++XXXX        ....++++@@@@....        XXXX++++       $",
"$       ++++XXXX        ....++++@@@@....        XXXX++++       $",
"$       ++++XXXX        ....++++@@@@....        XXXX++++       $",
"$       ++++XXXX        ....++++@@@@....        XXXX++++       $",
"$   XXXX        XXXXXXXX                XXXXXXXX        XXXX   $",
"$   XXXX        XXXXXXXX                XXXXXXXX        XXXX   $",
"$   XXXX        XXXXXXXX                XXXXXXXX        XXXX   $",
"$   XXXX        XXXXXXXX                XXXXXXXX        XXXX   $",
"$   XXXXXXXXXXXXXXXXXXXXXXXXXXXXXXXXXXXXXXXXXXXXXXXXXXXXXXXX   $",
"$   XXXXXXXXXXXXXXXXXXXXXXXXXXXXXXXXXXXXXXXXXXXXXXXXXXXXXXXX   $",
"$   XXXXXXXXXXXXXXXXXXXXXXXXXXXXXXXXXXXXXXXXXXXXXXXXXXXXXXXX   $",
"$   XXXXXXXXXXXXXXXXXXXXXXXXXXXXXXXXXXXXXXXXXXXXXXXXXXXXXXXX   $",
"$   ....XXXXXXXXXXXXXXXXXXXXXXXXXXXXXXXXXXXXXXXXXXXXXXXX....   $",
"$   ....XXXXXXXXXXXXXXXXXXXXXXXXXXXXXXXXXXXXXXXXXXXXXXXX....   $",
"$   ....XXXXXXXXXXXXXXXXXXXXXXXXXXXXXXXXXXXXXXXXXXXXXXXX....   $",
"$   ....XXXXXXXXXXXXXXXXXXXXXXXXXXXXXXXXXXXXXXXXXXXXXXXX....   $",
"$   ........................................................   $",
"$   ........................................................   $",
"$   ........................................................   $",
"$   ........................................................   $",
"$                                                              $",
"$                                                              $",
"$                                                              $",
"$$$$$$$$$$$$$$$$$$$$$$$$$$$$$$$$$$$$$$$$$$$$$$$$$$$$$$$$$$$$$$$$",
"$$$$$$$$$$$$$$$$$$$$$$$$$$$$$$$$$$$$$$$$$$$$$$$$$$$$$$$$$$$$$$$$",
"$$$$$$$$$$$$$$$$$$$$$$$$$$$$$$$$$$$$$$$$$$$$$$$$$$$$$$$$$$$$$$$$",
"$$$$$$$$$$$$$$$$$$$$$$$$$$$$$$$$$$$$$$$$$$$$$$$$$$$$$$$$$$$$$$$$",
"$$$$$$$$$$$$$$$$$$$$$$$$$$$$$$$$$$$$$$$$$$$$$$$$$$$$$$$$$$$$$$$$",
"$$$$$$$$$$$$$$$$$$$$$$$$$$$$$$$$$$$$$$$$$$$$$$$$$$$$$$$$$$$$$$$$",
};
