/* XPM */
static const char *exit_64[] = {
/* columns rows colors chars-per-pixel */
"64 64 6 1 ",
"  c #1C1117",
". c #35271F",
"X c #301D27",
"o c #422835",
"O c #664729",
"+ c #523A42",
/* pixels */
"oooooooooooooooooooooooooooooooooooooooooooooooooooooooooooooooo",
"oooooooooooooooooooooooooooooooooooooooooooooooooooooooooooooooo",
"oooooooooooooooooooooooooooooooooooooooooooooooooooooooooooooooo",
"oooooooooooooooooooooooooooooooooooooooooooooooooooooooooooooooo",
"oooooooooooooooooooooooooooooooooooooooooooooooooooooooooooooooo",
"oooooooooooooooooooooooooooooooooooooooooooooooooooooooooooooooo",
"oooooooooooooooooooooooooooooooooooooooooooooooooooooooooooooooo",
"oooooooooooooooooooooooooooooooooooooooooooooooooooooooooooooooo",
"oooooooooooooooooooooooooooooooooooooooooooooooooooooooooooooooo",
"oooooooooooooooooooooooooooooooooooooooooooooooooooooooooooooooo",
"oooooooooooooooooooooooooooooooooooooooooooooooooooooooooooooooo",
"oooooooooooooooooooooooooooooooooooooooooooooooooooooooooooooooo",
"oooooooooooooooooooooooooooooooooooooooooooooooooooooooooooooooo",
"oooooooooooooooooooooooooooooooooooooooooooooooooooooooooooooooo",
"oooooooooooooooooooooooooooooooooooooooooooooooooooooooooooooooo",
"oooooooooooooooooooooooooooooooooooooooooooooooooooooooooooooooo",
"ooooooooooooooooOOOOXXXXXXXXXXXXXXXXXXXXXXXXOOOOoooooooooooooooo",
"ooooooooooooooooOOOOXXXXXXXXXXXXXXXXXXXXXXXXOOOOoooooooooooooooo",
"ooooooooooooooooOOOOXXXXXXXXXXXXXXXXXXXXXXXXOOOOoooooooooooooooo",
"ooooooooooooooooOOOOXXXXXXXXXXXXXXXXXXXXXXXXOOOOoooooooooooooooo",
"ooooooooXXXXXXXXOOOO    OOOOOOOOOOOOOOOOXXXXOOOOXXXXXXXXoooooooo",
"ooooooooXXXXXXXXOOOO    OOOOOOOOOOOOOOOOXXXXOOOOXXXXXXXXoooooooo",
"ooooooooXXXXXXXXOOOO    OOOOOOOOOOOOOOOOXXXXOOOOXXXXXXXXoooooooo",
"ooooooooXXXXXXXXOOOO    OOOOOOOOOOOOOOOOXXXXOOOOXXXXXXXXoooooooo",
"ooooXXXXXXXX    OOOO                        OOOOXXXX    XXXXoooo",
"ooooXXXXXXXX    OOOO                        OOOOXXXX    XXXXoooo",
"ooooXXXXXXXX    OOOO                        OOOOXXXX    XXXXoooo",
"ooooXXXXXXXX    OOOO                        OOOOXXXX    XXXXoooo",
"oooo    XXXX    OOOO    OOOOOOOOOOOOOOOO    OOOOXXXX        oooo",
"oooo    XXXX    OOOO    OOOOOOOOOOOOOOOO    OOOOXXXX        oooo",
"oooo    XXXX    OOOO    OOOOOOOOOOOOOOOO    OOOOXXXX        oooo",
"oooo    XXXX    OOOO    OOOOOOOOOOOOOOOO    OOOOXXXX        oooo",
"oooo            ....                        ....XXXX        oooo",
"oooo            ....                        ....XXXX        oooo",
"oooo            ....                        ....XXXX        oooo",
"oooo            ....                        ....XXXX        oooo",
"oooo            ....    ................    ....            oooo",
"oooo            ....    ................    ....            oooo",
"oooo            ....    ................    ....            oooo",
"oooo            ....    ................    ....            oooo",
"oooo++++        XXXX                        XXXX        ++++oooo",
"oooo++++        XXXX                        XXXX        ++++oooo",
"oooo++++        XXXX                        XXXX        ++++oooo",
"oooo++++        XXXX                        XXXX        ++++oooo",
"oooooooo++++++++XXXX    XXXXXXXXXXXXXXXX    XXXX++++++++oooooooo",
"oooooooo++++++++XXXX    XXXXXXXXXXXXXXXX    XXXX++++++++oooooooo",
"oooooooo++++++++XXXX    XXXXXXXXXXXXXXXX    XXXX++++++++oooooooo",
"oooooooo++++++++XXXX    XXXXXXXXXXXXXXXX    XXXX++++++++oooooooo",
"oooooooooooooooo++++++++++++++++++++++++++++++++oooooooooooooooo",
"oooooooooooooooo++++++++++++++++++++++++++++++++oooooooooooooooo",
"oooooooooooooooo++++++++++++++++++++++++++++++++oooooooooooooooo",
"oooooooooooooooo++++++++++++++++++++++++++++++++oooooooooooooooo",
"oooooooooooooooooooooooooooooooooooooooooooooooooooooooooooooooo",
"oooooooooooooooooooooooooooooooooooooooooooooooooooooooooooooooo",
"oooooooooooooooooooooooooooooooooooooooooooooooooooooooooooooooo",
"oooooooooooooooooooooooooooooooooooooooooooooooooooooooooooooooo",
"oooooooooooooooooooooooooooooooooooooooooooooooooooooooooooooooo",
"oooooooooooooooooooooooooooooooooooooooooooooooooooooooooooooooo",
"oooooooooooooooooooooooooooooooooooooooooooooooooooooooooooooooo",
"oooooooooooooooooooooooooooooooooooooooooooooooooooooooooooooooo",
"oooooooooooooooooooooooooooooooooooooooooooooooooooooooooooooooo",
"oooooooooooooooooooooooooooooooooooooooooooooooooooooooooooooooo",
"oooooooooooooooooooooooooooooooooooooooooooooooooooooooooooooooo",
"oooooooooooooooooooooooooooooooooooooooooooooooooooooooooooooooo"
};
