/* XPM */
static const char *player_64[] = {
/* columns rows colors chars-per-pixel */
"64 64 7 1 ",
"  c #1C1117",
". c #1F5175",
"X c #355261",
"o c #2E79B2",
"O c #5A8CA6",
"+ c #89ACBE",
"@ c #422835",
/* pixels */

"@@@@@@@@@@@@@@@@@@@@@@@@@@@@@@@@@@@@@@@@@@@@@@@@@@@@@@@@@@@@@@@@",
"@@@@@@@@@@@@@@@@@@@@@@@@@@@@@@@@@@@@@@@@@@@@@@@@@@@@@@@@@@@@@@@@",
"@@@@@@@@@@@@                                        @@@@@@@@@@@@",
"@@@@@@@@@@@@                                        @@@@@@@@@@@@",
"@@@@@@@@@@@@                                        @@@@@@@@@@@@",
"@@@@@@@@@@@@                                        @@@@@@@@@@@@",
"@@@@@@@@@@@@    OOOOOOOOOOOOOOOOOOOOOOOO++++++++    @@@@@@@@@@@@",
"@@@@@@@@@@@@    OOOOOOOOOOOOOOOOOOOOOOOO++++++++    @@@@@@@@@@@@",
"@@@@@@@@@@@@    OOOOOOOOOOOOOOOOOOOOOOOO++++++++    @@@@@@@@@@@@",
"@@@@@@@@@@@@    OOOOOOOOOOOOOOOOOOOOOOOO++++++++    @@@@@@@@@@@@",
"@@@@@@@@@@@@    OOOOOOOOXXXXXXXXXXXXXXXXXXXXXXXX            @@@@",
"@@@@@@@@@@@@    OOOOOOOOXXXXXXXXXXXXXXXXXXXXXXXX            @@@@",
"@@@@@@@@@@@@    OOOOOOOOXXXXXXXXXXXXXXXXXXXXXXXX            @@@@",
"@@@@@@@@@@@@    OOOOOOOOXXXXXXXXXXXXXXXXXXXXXXXX            @@@@",
"@@@@@@@@@@@@    OOOOOOOOXXXXOOOOOOOOOOOOOOOOOOOO++++++++    @@@@",
"@@@@@@@@@@@@    OOOOOOOOXXXXOOOOOOOOOOOOOOOOOOOO++++++++    @@@@",
"@@@@@@@@@@@@    OOOOOOOOXXXXOOOOOOOOOOOOOOOOOOOO++++++++    @@@@",
"@@@@@@@@@@@@    OOOOOOOOXXXXOOOOOOOOOOOOOOOOOOOO++++++++    @@@@",
"@@@@@@@@@@@@    OOOOOOOOXXXXOOOO    OOOO    OOOO    ++++    @@@@",
"@@@@@@@@@@@@    OOOOOOOOXXXXOOOO    OOOO    OOOO    ++++    @@@@",
"@@@@@@@@@@@@    OOOOOOOOXXXXOOOO    OOOO    OOOO    ++++    @@@@",
"@@@@@@@@@@@@    OOOOOOOOXXXXOOOO    OOOO    OOOO    ++++    @@@@",
"@@@@@@@@@@@@    OOOOOOOOXXXXOOOO    OOOO    OOOO    ++++    @@@@",
"@@@@@@@@@@@@    OOOOOOOOXXXXOOOO    OOOO    OOOO    ++++    @@@@",
"@@@@@@@@@@@@    OOOOOOOOXXXXOOOO    OOOO    OOOO    ++++    @@@@",
"@@@@@@@@@@@@    OOOOOOOOXXXXOOOO    OOOO    OOOO    ++++    @@@@",
"@@@@@@@@@@@@    OOOOOOOOXXXXOOOO    OOOO    OOOO    ++++    @@@@",
"@@@@@@@@@@@@    OOOOOOOOXXXXOOOO    OOOO    OOOO    ++++    @@@@",
"@@@@@@@@@@@@    OOOOOOOOXXXXOOOO    OOOO    OOOO    ++++    @@@@",
"@@@@@@@@@@@@    OOOOOOOOXXXXOOOO    OOOO    OOOO    ++++    @@@@",
"@@@@@@@@@@@@    OOOOOOOOXXXXOOOOOOOOOOOOOOOOOOOO++++++++    @@@@",
"@@@@@@@@@@@@    OOOOOOOOXXXXOOOOOOOOOOOOOOOOOOOO++++++++    @@@@",
"@@@@@@@@@@@@    OOOOOOOOXXXXOOOOOOOOOOOOOOOOOOOO++++++++    @@@@",
"@@@@@@@@@@@@    OOOOOOOOXXXXOOOOOOOOOOOOOOOOOOOO++++++++    @@@@",
"@@@@@@@@@@@@    OOOOOOOOXXXXXXXXXXXXXXXXXXXXXXXX            @@@@",
"@@@@@@@@@@@@    OOOOOOOOXXXXXXXXXXXXXXXXXXXXXXXX            @@@@",
"@@@@@@@@@@@@    OOOOOOOOXXXXXXXXXXXXXXXXXXXXXXXX            @@@@",
"@@@@@@@@@@@@    OOOOOOOOXXXXXXXXXXXXXXXXXXXXXXXX            @@@@",
"@@@@@@@@@@@@    OOOOOOOOOOOOOOOOOOOOOOOOOOOO++++    @@@@@@@@@@@@",
"@@@@@@@@@@@@    OOOOOOOOOOOOOOOOOOOOOOOOOOOO++++    @@@@@@@@@@@@",
"@@@@@@@@@@@@    OOOOOOOOOOOOOOOOOOOOOOOOOOOO++++    @@@@@@@@@@@@",
"@@@@@@@@@@@@    OOOOOOOOOOOOOOOOOOOOOOOOOOOO++++    @@@@@@@@@@@@",
"@@@@@@@@@@@@    XXXXXXXXXXXXXXXXXXXXXXXXXXXXOOOO    @@@@@@@@@@@@",
"@@@@@@@@@@@@    XXXXXXXXXXXXXXXXXXXXXXXXXXXXOOOO    @@@@@@@@@@@@",
"@@@@@@@@@@@@    XXXXXXXXXXXXXXXXXXXXXXXXXXXXOOOO    @@@@@@@@@@@@",
"@@@@@@@@@@@@    XXXXXXXXXXXXXXXXXXXXXXXXXXXXOOOO    @@@@@@@@@@@@",
"@@@@@@@@@@@@    OOOOOOOOOOOOOOOOOOOOOOOOOOOO++++    @@@@@@@@@@@@",
"@@@@@@@@@@@@    OOOOOOOOOOOOOOOOOOOOOOOOOOOO++++    @@@@@@@@@@@@",
"@@@@@@@@@@@@    OOOOOOOOOOOOOOOOOOOOOOOOOOOO++++    @@@@@@@@@@@@",
"@@@@@@@@@@@@    OOOOOOOOOOOOOOOOOOOOOOOOOOOO++++    @@@@@@@@@@@@",
"@@@@@@@@@@@@    OOOOOOOOOOOOOOOOOOOOOOOOOOOO++++    @@@@@@@@@@@@",
"@@@@@@@@@@@@    OOOOOOOOOOOOOOOOOOOOOOOOOOOO++++    @@@@@@@@@@@@",
"@@@@@@@@@@@@    OOOOOOOOOOOOOOOOOOOOOOOOOOOO++++    @@@@@@@@@@@@",
"@@@@@@@@@@@@    OOOOOOOOOOOOOOOOOOOOOOOOOOOO++++    @@@@@@@@@@@@",
"@@@@@@@@@@@@    XXXX                        XXXX    @@@@@@@@@@@@",
"@@@@@@@@@@@@    XXXX                        XXXX    @@@@@@@@@@@@",
"@@@@@@@@@@@@    XXXX                        XXXX    @@@@@@@@@@@@",
"@@@@@@@@@@@@    XXXX                        XXXX    @@@@@@@@@@@@",
"@@@@@@@@@@@@            @@@@@@@@@@@@@@@@            @@@@@@@@@@@@",
"@@@@@@@@@@@@            @@@@@@@@@@@@@@@@            @@@@@@@@@@@@",
"@@@@@@@@@@@@            @@@@@@@@@@@@@@@@            @@@@@@@@@@@@",
"@@@@@@@@@@@@            @@@@@@@@@@@@@@@@            @@@@@@@@@@@@"
"@@@@@@@@@@@@@@@@@@@@@@@@@@@@@@@@@@@@@@@@@@@@@@@@@@@@@@@@@@@@@@@@",
"@@@@@@@@@@@@@@@@@@@@@@@@@@@@@@@@@@@@@@@@@@@@@@@@@@@@@@@@@@@@@@@@",
};
