/* XPM */
static const char *wall_64[] = {
/* columns rows colors chars-per-pixel */
"64 64 5 1 ",
"  c #1C1117",
". c #301D27",
"X c #38262D",
"o c #422835",
"O c #523A42",
/* pixels */
"OOOOOOOOOOOOOOOOOOOO    OOOOOOOOOOOOOOOO    OOOOOOOO........OOOO",
"OOOOOOOOOOOOOOOOOOOO    OOOOOOOOOOOOOOOO    OOOOOOOO........OOOO",
"OOOOOOOOOOOOOOOOOOOO    OOOOOOOOOOOOOOOO    OOOOOOOO........OOOO",
"OOOOOOOOOOOOOOOOOOOO    OOOOOOOOOOOOOOOO    OOOOOOOO........OOOO",
"oooooooooooooooooooo    oooooooooooooooo    oooooooooooooooo....",
"oooooooooooooooooooo    oooooooooooooooo    oooooooooooooooo....",
"oooooooooooooooooooo    oooooooooooooooo    oooooooooooooooo....",
"oooooooooooooooooooo    oooooooooooooooo    oooooooooooooooo....",
"oooooooooooooooooooo    oooooooo....oooo    oooo....oooooooooooo",
"oooooooooooooooooooo    oooooooo....oooo    oooo....oooooooooooo",
"oooooooooooooooooooo    oooooooo....oooo    oooo....oooooooooooo",
"oooooooooooooooooooo    oooooooo....oooo    oooo....oooooooooooo",
"                                                                ",
"                                                                ",
"                                                                ",
"                                                                ",
"OOOO....OOOOOOOO    OOOO....OOOOOOOOOOOOOOOO    OOOOOOOOOOOOOOOO",
"OOOO....OOOOOOOO    OOOO....OOOOOOOOOOOOOOOO    OOOOOOOOOOOOOOOO",
"OOOO....OOOOOOOO    OOOO....OOOOOOOOOOOOOOOO    OOOOOOOOOOOOOOOO",
"OOOO....OOOOOOOO    OOOO....OOOOOOOOOOOOOOOO    OOOOOOOOOOOOOOOO",
"oooooooooooooooo    oooooooo....oooooooooooo    oooooooooooooooo",
"oooooooooooooooo    oooooooo....oooooooooooo    oooooooooooooooo",
"oooooooooooooooo    oooooooo....oooooooooooo    oooooooooooooooo",
"oooooooooooooooo    oooooooo....oooooooooooo    oooooooooooooooo",
"oooooooooooooooo    oooooooo....oooooooooooo    oooo....oooooooo",
"oooooooooooooooo    oooooooo....oooooooooooo    oooo....oooooooo",
"oooooooooooooooo    oooooooo....oooooooooooo    oooo....oooooooo",
"oooooooooooooooo    oooooooo....oooooooooooo    oooo....oooooooo",
"                                                                ",
"                                                                ",
"                                                                ",
"                                                                ",
"OOOOOOOO....OOOOOOOOOOOOOOOO    OOOOOOOO....OOOOOOOOOOOO    XXXX",
"OOOOOOOO....OOOOOOOOOOOOOOOO    OOOOOOOO....OOOOOOOOOOOO    XXXX",
"OOOOOOOO....OOOOOOOOOOOOOOOO    OOOOOOOO....OOOOOOOOOOOO    XXXX",
"OOOOOOOO....OOOOOOOOOOOOOOOO    OOOOOOOO....OOOOOOOOOOOO    XXXX",
"oooooooo....oooooooooooooooo    oooooooo....oooooooooooo    oooo",
"oooooooo....oooooooooooooooo    oooooooo....oooooooooooo    oooo",
"oooooooo....oooooooooooooooo    oooooooo....oooooooooooo    oooo",
"oooooooo....oooooooooooooooo    oooooooo....oooooooooooo    oooo",
"oooooooooooo....oooooooooooo    oooooooooooooooooooooooo    oooo",
"oooooooooooo....oooooooooooo    oooooooooooooooooooooooo    oooo",
"oooooooooooo....oooooooooooo    oooooooooooooooooooooooo    oooo",
"oooooooooooo....oooooooooooo    oooooooooooooooooooooooo    oooo",
"                                                                ",
"                                                                ",
"                                                                ",
"                                                                ",
"OOOOOOOO    OOOOOOOO....OOOOOOOOOOOOOOOO    OOOOOOOO....OOOOOOOO",
"OOOOOOOO    OOOOOOOO....OOOOOOOOOOOOOOOO    OOOOOOOO....OOOOOOOO",
"OOOOOOOO    OOOOOOOO....OOOOOOOOOOOOOOOO    OOOOOOOO....OOOOOOOO",
"OOOOOOOO    OOOOOOOO....OOOOOOOOOOOOOOOO    OOOOOOOO....OOOOOOOO",
"oooo....    oooooooo....oooooooooooooooo    oooooooooooooooooooo",
"oooo....    oooooooo....oooooooooooooooo    oooooooooooooooooooo",
"oooo....    oooooooo....oooooooooooooooo    oooooooooooooooooooo",
"oooo....    oooooooo....oooooooooooooooo    oooooooooooooooooooo",
"oooooooo    oooooooooooooooooooo....oooo    oooo....oooooooooooo",
"oooooooo    oooooooooooooooooooo....oooo    oooo....oooooooooooo",
"oooooooo    oooooooooooooooooooo....oooo    oooo....oooooooooooo",
"oooooooo    oooooooooooooooooooo....oooo    oooo....oooooooooooo",
"                                                                ",
"                                                                ",
"                                                                ",
"                                                                "
};
